<?xml version="1.0" encoding="utf-8"?>
<!-- Generator: Adobe Illustrator 16.0.0, SVG Export Plug-In . SVG Version: 6.00 Build 0)  -->
<!DOCTYPE svg PUBLIC "-//W3C//DTD SVG 1.1//EN" "http://www.w3.org/Graphics/SVG/1.1/DTD/svg11.dtd">
<svg version="1.1" id="Layer_1" xmlns="http://www.w3.org/2000/svg" xmlns:xlink="http://www.w3.org/1999/xlink" x="0px" y="0px"
	 width="200px" height="200px" viewBox="0 0 200 200" enable-background="new 0 0 200 200" xml:space="preserve">
<path fill="#FFFFFF" d="M115.707,137.604l0.275,0.496c0.853,1.54,21.064,37.771,36.497,44.91c1.475,0.683,3.045,1.029,4.666,1.03
	c0,0,0,0,0.002,0c10.155,0,22.044-13.209,36.34-40.378l0.48-0.911c4.485-8.473-2.165-20.727-15.892-29.796
	c5.398-5.835,19.99-23.619,19.877-45.247c-0.073-13.862-6.22-26.605-18.269-37.877l-1.36-1.272l-62.617,48.007V137.604z
	 M120.103,78.734l57.92-44.406c10.24,10.078,15.465,21.298,15.535,33.377c0.121,20.584-14.785,38.055-19.226,42.797l-29.725-20.594
	l-1.252,1.807l-1.252,1.806l29.044,20.124l-0.135,0.129l2.468,1.48c13.011,7.807,20.148,18.744,16.603,25.441l-0.485,0.92
	c-16.54,31.431-26.775,38.029-32.45,38.029c-0.001,0-0.002,0-0.002,0c-0.992-0.001-1.915-0.205-2.82-0.624
	c-13.234-6.122-31.749-38.196-34.223-42.562V78.734z M174.611,113.371L174.611,113.371L174.611,113.371z"/>
<path fill="#FFFFFF" d="M173.718,71.141c6.506,0,11.798-5.292,11.798-11.798c0-6.505-5.292-11.797-11.798-11.797
	c-6.505,0-11.797,5.292-11.797,11.797C161.921,65.849,167.213,71.141,173.718,71.141z M173.718,51.941
	c4.082,0,7.402,3.32,7.402,7.402s-3.32,7.402-7.402,7.402c-4.081,0-7.401-3.321-7.401-7.402S169.637,51.941,173.718,51.941z"/>
<path fill="#FFFFFF" d="M152.51,83.197c4.165,0,7.555-3.39,7.555-7.556c0-4.166-3.39-7.556-7.555-7.556
	c-4.167,0-7.557,3.39-7.557,7.556C144.953,79.807,148.343,83.197,152.51,83.197z M152.51,72.48c1.742,0,3.159,1.417,3.159,3.16
	c0,1.743-1.417,3.161-3.159,3.161c-1.743,0-3.161-1.417-3.161-3.161C149.349,73.898,150.767,72.48,152.51,72.48z"/>
<rect x="137.228" y="120.466" transform="matrix(0.788 0.6156 -0.6156 0.788 109.1689 -71.7377)" fill="#FFFFFF" width="43.064" height="4.396"/>
<polygon fill="#FFFFFF" points="163.768,152.068 165.234,150.431 166.701,148.795 138.795,123.79 137.328,125.427 135.861,127.063 
	"/>
<polygon fill="#FFFFFF" points="151.979,164.836 155.271,161.924 134.732,138.705 133.086,140.161 131.44,141.617 "/>
<path fill="#FFFFFF" d="M7.011,142.752l0.477,0.906c14.298,27.173,26.187,40.383,36.345,40.383c1.62,0,3.19-0.348,4.667-1.03
	c15.432-7.14,35.644-43.37,36.497-44.91l0.275-0.496V76.566L22.654,28.559l-1.361,1.272C9.244,41.104,3.097,53.847,3.024,67.709
	c-0.114,21.628,14.479,39.412,19.877,45.247C9.175,122.025,2.525,134.279,7.011,142.752z M80.875,78.735v57.725
	c-2.474,4.365-20.989,36.439-34.222,42.562c-0.906,0.419-1.829,0.624-2.821,0.624c-5.676,0-15.915-6.599-32.455-38.035l-0.482-0.914
	c-3.545-6.697,3.592-17.635,16.603-25.441l2.471-1.482l-0.136-0.13l29.042-20.121l-2.504-3.613l-29.727,20.596
	c-4.438-4.733-19.332-22.16-19.224-42.773c0.063-12.088,5.289-23.319,15.535-33.403L80.875,78.735z"/>
<path fill="#FFFFFF" d="M27.26,71.141c6.505,0,11.797-5.292,11.797-11.798c0-6.505-5.292-11.797-11.797-11.797
	c-6.505,0-11.798,5.292-11.798,11.797C15.462,65.849,20.755,71.141,27.26,71.141z M34.662,59.343c0,4.082-3.321,7.402-7.402,7.402
	c-4.082,0-7.402-3.321-7.402-7.402s3.321-7.402,7.402-7.402C31.341,51.941,34.662,55.262,34.662,59.343z"/>
<path fill="#FFFFFF" d="M48.469,83.197c4.167,0,7.556-3.39,7.556-7.556c0-4.166-3.39-7.556-7.556-7.556
	c-4.166,0-7.555,3.39-7.555,7.556C40.914,79.807,44.303,83.197,48.469,83.197z M48.469,72.48c1.743,0,3.161,1.417,3.161,3.16
	c0,1.743-1.418,3.161-3.161,3.161s-3.16-1.417-3.16-3.161C45.309,73.898,46.726,72.48,48.469,72.48z"/>
<polygon fill="#FFFFFF" points="23.897,134.188 26.604,137.651 60.538,111.14 59.185,109.408 57.832,107.676 "/>
<rect x="30.962" y="135.732" transform="matrix(-0.7448 0.6673 -0.6673 -0.7448 178.7528 207.4906)" fill="#FFFFFF" width="37.47" height="4.395"/>
<polygon fill="#FFFFFF" points="45.707,161.924 47.353,163.38 48.999,164.836 69.538,141.617 67.892,140.161 66.246,138.705 "/>
<path fill="#FFFFFF" d="M60.628,21.855c20.697-0.94,29.156,17.137,31.247,22.645c-3.677,2.651-6.084,6.96-6.084,11.829
	c0,6.957,4.898,12.781,11.424,14.232c-6.526,1.451-11.424,7.276-11.424,14.232v49.227c0,8.044,6.545,14.589,14.589,14.589
	s14.588-6.545,14.588-14.589V84.794c0-6.956-4.897-12.782-11.423-14.232c6.525-1.451,11.423-7.276,11.423-14.232
	c0-4.728-2.271-8.925-5.768-11.593c1.965-5.146,10.549-23.811,31.322-22.881l0.199-4.391c-22.849-1.04-32.721,18.521-35.403,25.156
	c-1.545-0.559-3.203-0.879-4.938-0.879c-1.608,0-3.15,0.271-4.597,0.754c-2.751-6.75-12.633-26.043-35.353-25.031L60.628,21.855z
	 M106.632,45.412L106.632,45.412L106.632,45.412L106.632,45.412z M109.105,51.089h-2.474v4.396h3.897
	c0.023,0.279,0.043,0.56,0.043,0.845c0,5.62-4.572,10.193-10.192,10.193c-5.621,0-10.193-4.573-10.193-10.193
	c0-0.285,0.02-0.565,0.043-0.845h4.29v-4.396h-2.866c1.786-2.961,5.023-4.953,8.727-4.953S107.32,48.128,109.105,51.089z
	 M94.519,45.412L94.519,45.412L94.519,45.412L94.519,45.412z M94.519,45.412L94.519,45.412L94.519,45.412L94.519,45.412
	L94.519,45.412z M88.381,53.287L88.381,53.287L88.381,53.287z M112.771,99.976L112.771,99.976L112.771,99.976z M112.771,113.371
	L112.771,113.371L112.771,113.371z M112.77,86.581L112.77,86.581L112.77,86.581z M103.282,84.383v2.198v2.198h7.29v9h-7.29v2.198
	v2.197h7.29v9h-7.29v2.198v2.197h7.29v18.453c0,5.62-4.572,10.193-10.192,10.193c-5.621,0-10.193-4.573-10.193-10.193v-11.532h7.291
	v-4.396h-7.291v-9h7.291v-4.396h-7.291v-9h7.291v-4.395h-7.291v-6.509c0-5.621,4.573-10.193,10.193-10.193
	c5.481,0,9.953,4.353,10.172,9.781H103.282z M87.989,93.501L87.989,93.501L87.989,93.501z M87.989,106.896L87.989,106.896
	L87.989,106.896z M87.989,120.291L87.989,120.291L87.989,120.291z M112.77,53.287L112.77,53.287L112.77,53.287z"/>
</svg>
