<?xml version="1.0" encoding="utf-8"?>
<!-- Generator: Adobe Illustrator 16.0.0, SVG Export Plug-In . SVG Version: 6.00 Build 0)  -->
<!DOCTYPE svg PUBLIC "-//W3C//DTD SVG 1.1//EN" "http://www.w3.org/Graphics/SVG/1.1/DTD/svg11.dtd">
<svg version="1.1" id="Layer_1" xmlns="http://www.w3.org/2000/svg" xmlns:xlink="http://www.w3.org/1999/xlink" x="0px" y="0px"
	 width="200px" height="200px" viewBox="0 0 200 200" enable-background="new 0 0 200 200" xml:space="preserve">
<path fill="#FFFFFF" d="M115.412,45c1.517-3.966,7.167-14.598,24.293-15.795c1.309,4.698,6.401,6.295,9.229,6.461l0.232-3.949
	c-0.231-0.014-5.666-0.383-5.819-4.678c-0.158-4.409,6.074-5.885,6.138-5.899l-0.436-1.93l-0.429-1.931
	c-0.354,0.079-7.943,1.842-9.087,7.973c-19.256,1.316-25.967,13.735-27.832,18.468c-3.552-1.041-7.454-1.717-11.707-2.017
	l-0.139-0.01l-0.139,0.01c-4.004,0.282-7.69,0.905-11.074,1.845c-1.959-4.856-8.742-16.995-27.764-18.295
	c-1.144-6.131-8.733-7.895-9.087-7.973l-0.864,3.861c0.063,0.014,6.295,1.49,6.138,5.899c-0.152,4.25-5.595,4.663-5.819,4.678
	l0.232,3.949c2.828-0.167,7.921-1.764,9.228-6.461c16.806,1.174,22.561,11.43,24.202,15.56c-6.552,2.478-11.739,6.36-15.478,11.639
	c-6.628,9.357-8.15,23.024-4.178,37.495c6.123,22.303,31.737,74.81,32.824,77.034l1.777,3.636l1.778-3.636
	c1.087-2.224,26.701-54.73,32.824-77.034c3.972-14.471,2.449-28.138-4.178-37.495C126.657,51.289,121.676,47.485,115.412,45z
	 M108.793,146.518H90.919c-2.222-4.825-4.609-10.089-6.975-15.454h31.823C113.401,136.429,111.016,141.692,108.793,146.518z
	 M99.856,165.518c-1.594-3.317-4.136-8.65-7.107-15.044h14.214C103.992,156.867,101.45,162.2,99.856,165.518z M117.501,127.107
	h-35.29c-2.336-5.371-4.605-10.756-6.625-15.815h48.542C122.106,116.352,119.837,121.736,117.501,127.107z M89.646,148.495
	L89.646,148.495L89.646,148.495z M125.679,107.336H74.033c-2.131-5.532-3.877-10.528-4.964-14.485
	c-0.429-1.563-0.784-3.113-1.077-4.648h63.726c-0.293,1.535-0.646,3.084-1.076,4.648
	C129.557,96.808,127.811,101.804,125.679,107.336z M99.856,45.659c12.568,0.913,21.717,5.297,27.196,13.031
	c4.636,6.546,6.437,15.575,5.27,25.557H67.39c-1.167-9.982,0.633-19.011,5.271-25.557C78.139,50.956,87.288,46.571,99.856,45.659z
	 M65.653,86.225L65.653,86.225L65.653,86.225z M110.066,148.495L110.066,148.495L110.066,148.495z M127.036,109.313L127.036,109.313
	L127.036,109.313z"/>
<path fill="#FFFFFF" d="M83.728,76.757c5.9,0,10.7-4.8,10.7-10.7c0-5.9-4.8-10.7-10.7-10.7c-5.9,0-10.7,4.8-10.7,10.7
	C73.028,71.957,77.828,76.757,83.728,76.757z M83.728,59.312c3.719,0,6.744,3.025,6.744,6.744c0,3.718-3.025,6.744-6.744,6.744
	s-6.744-3.025-6.744-6.744C76.984,62.338,80.009,59.312,83.728,59.312z"/>
<path fill="#FFFFFF" d="M83.728,71.71c3.118,0,5.654-2.536,5.654-5.653c0-3.118-2.536-5.654-5.654-5.654
	c-3.117,0-5.653,2.536-5.653,5.654C78.075,69.174,80.611,71.71,83.728,71.71z M83.728,64.359c0.936,0,1.697,0.762,1.697,1.698
	c0,0.936-0.761,1.697-1.697,1.697c-0.936,0-1.697-0.762-1.697-1.697C82.031,65.121,82.792,64.359,83.728,64.359z"/>
<path fill="#FFFFFF" d="M116.686,76.757c5.899,0,10.7-4.8,10.7-10.7c0-5.9-4.801-10.7-10.7-10.7c-5.9,0-10.7,4.8-10.7,10.7
	C105.985,71.957,110.785,76.757,116.686,76.757z M116.686,59.312c3.718,0,6.744,3.025,6.744,6.744c0,3.718-3.026,6.744-6.744,6.744
	c-3.719,0-6.744-3.025-6.744-6.744C109.941,62.338,112.967,59.312,116.686,59.312z"/>
<path fill="#FFFFFF" d="M116.686,71.71c3.117,0,5.653-2.536,5.653-5.653c0-3.118-2.536-5.654-5.653-5.654
	c-3.118,0-5.653,2.536-5.653,5.654C111.032,69.174,113.567,71.71,116.686,71.71z M116.686,64.359c0.936,0,1.697,0.762,1.697,1.698
	c0,0.936-0.762,1.697-1.697,1.697c-0.937,0-1.697-0.762-1.697-1.697C114.988,65.121,115.749,64.359,116.686,64.359z"/>
<path fill="#FFFFFF" d="M3.426,145.173c-2.363,22.618,7.274,34.543,7.686,35.039l1.864,2.249l16.235-29.82
	c3.596,6.033,12.904,18.942,30.912,28.073l2.873,1.457V90.587v-8.274v-7.294l-3.239,2.679C57.555,79.52,5.788,122.576,3.426,145.173
	z M59.04,97.854v39.129h-5.482v3.956h5.482v7.728h-5.482v3.956h5.482v23.029c-17.614-9.889-25.722-23.596-27.591-27.12L59.04,97.854
	z M59.04,89.58l-0.149,0.274l-46.414,85.25c-2.49-4.396-6.7-14.354-5.115-29.521c0.586-5.603,4.732-12.802,10.506-20.354
	l5.771,5.312l2.679-2.91l-5.992-5.517c1.881-2.321,3.888-4.657,5.968-6.977l5.317,5.455l1.417-1.382l1.417-1.38l-5.479-5.62
	C40.372,99.91,53.179,88.55,59.04,83.499V89.58z M26.249,112.259L26.249,112.259L26.249,112.259z M17.649,122.34L17.649,122.34
	L17.649,122.34z M61.018,150.644L61.018,150.644L61.018,150.644z M61.018,138.96L61.018,138.96L61.018,138.96z"/>
<path fill="#FFFFFF" d="M196.426,145.173c-2.361-22.597-54.129-65.653-56.331-67.475l-3.239-2.679v7.294v8.274v91.584l2.873-1.457
	c18.008-9.131,27.315-22.04,30.912-28.073l16.235,29.821l1.863-2.25C189.151,179.716,198.789,167.791,196.426,145.173z
	 M148.314,103.36l-7.503-13.781v-6.081c5.861,5.051,18.669,16.411,30.076,28.71l-5.479,5.622l2.833,2.762l5.318-5.456
	c2.08,2.319,4.087,4.656,5.968,6.976l-5.993,5.519l1.34,1.455l1.34,1.455l5.771-5.312c5.773,7.552,9.919,14.75,10.505,20.354
	c1.576,15.082-2.636,25.082-5.122,29.507L148.314,103.36z M140.812,175.652v-23.03h5.482v-1.979v-1.978h-5.482v-7.728h5.482v-1.979
	v-1.978h-5.482V97.854l27.593,50.68C166.544,152.06,158.479,165.741,140.812,175.652z M173.603,112.259L173.603,112.259
	L173.603,112.259z"/>
</svg>
