<?xml version="1.0" encoding="utf-8"?>
<!-- Generator: Adobe Illustrator 16.0.0, SVG Export Plug-In . SVG Version: 6.00 Build 0)  -->
<!DOCTYPE svg PUBLIC "-//W3C//DTD SVG 1.1//EN" "http://www.w3.org/Graphics/SVG/1.1/DTD/svg11.dtd">
<svg version="1.1" id="Layer_1" xmlns="http://www.w3.org/2000/svg" xmlns:xlink="http://www.w3.org/1999/xlink" x="0px" y="0px"
	 width="200px" height="200px" viewBox="0 0 200 200" enable-background="new 0 0 200 200" xml:space="preserve">
<path fill="#FFFFFF" d="M149.705,67.548h-23.713c-1.455-6.74-3.489-14.577-6.212-21.858h26.282L127.506,8.071l-4.586,1.843
	l15.411,31.244h-21.518l0.423-1.62c-2.024-4.406-4.348-8.378-7.002-11.457c-0.194-1.695-0.457-3.592-0.806-5.535
	c0.155,0.011,0.312,0.021,0.471,0.021c3.227,0,5.851-2.37,5.851-5.282c0-2.912-2.624-5.281-5.851-5.281
	c-1.166,0-2.251,0.312-3.164,0.845c-1.539-3.566-3.653-6.123-6.554-6.123s-5.014,2.557-6.554,6.123
	c-0.913-0.533-1.998-0.845-3.163-0.845c-3.227,0-5.851,2.369-5.851,5.281c0,2.913,2.625,5.282,5.851,5.282
	c0.159,0,0.315-0.01,0.47-0.021c-0.349,1.943-0.611,3.84-0.806,5.535c-2.977,3.452-5.536,8.025-7.724,13.077H62.032L77.444,9.915
	l-4.586-1.843L54.302,45.69h26.282c-2.723,7.281-4.757,15.118-6.212,21.858H50.658l-17.077,36.314l4.622,1.771L53.981,72.08h19.46
	c-0.575,2.962-1.021,5.579-1.35,7.655c-1.417,8.958-2.278,17.725-2.582,25.569l-34.474,24.119l30.298,62.438l4.598-1.817
	l-28.729-59.203l28.184-19.719c-0.02,8.573,0.728,15.622,2.258,19.95c6.72,19.006,28.214,20.039,28.43,20.048l0.105,0.003
	l0.105-0.003c0.216-0.009,21.711-1.042,28.431-20.048c0.314-0.891,0.596-1.902,0.845-3.014l-0.936-18.58l30.532,21.362
	l-28.729,59.203l4.599,1.817l30.299-62.438l-34.475-24.119c-0.304-7.844-1.165-16.611-2.582-25.569
	c-0.314-1.986-0.738-4.472-1.276-7.276l-0.44-0.379h19.828l15.778,33.553l4.621-1.771L149.705,67.548z M123.935,129.694
	c-4.396,12.434-15.996,15.73-21.243,16.595v-6.799l22.883-39.101C126.444,113.021,125.979,123.915,123.935,129.694z M74.79,100.39
	l22.882,39.1v6.78c-5.236-0.897-16.887-4.253-21.243-16.576C74.385,123.915,73.919,113.021,74.79,100.39z M100.182,11.32
	c1.639,1.076,3.749,7.93,4.814,15.387h-9.628C96.431,19.251,98.54,12.397,100.182,11.32z M92.553,28.973L92.553,28.973
	L92.553,28.973z M93.777,31.239h3.895V56.92h5.02V31.239h3.896c4.546,5.483,8.435,14.707,11.513,25.441l-17.918,29.976L82.265,56.68
	C85.342,45.945,89.231,36.722,93.777,31.239z M100.182,134.077L75.541,91.972c1.029-9.458,2.715-19.429,4.972-28.679L97.672,92
	v0.413h5.02V92l17.159-28.707c2.257,9.25,3.943,19.221,4.972,28.679L100.182,134.077z M109.899,16.536
	c0.458,0,0.831,0.336,0.831,0.75c0,0.414-0.373,0.75-0.831,0.75c-0.459,0-0.831-0.336-0.831-0.75
	C109.068,16.873,109.44,16.536,109.899,16.536z M90.465,18.037c-0.458,0-0.831-0.336-0.831-0.75c0-0.414,0.373-0.75,0.831-0.75
	c0.458,0,0.831,0.336,0.831,0.75C91.295,17.7,90.923,18.037,90.465,18.037z"/>
</svg>
