<?xml version="1.0" encoding="utf-8"?>
<!-- Generator: Adobe Illustrator 16.0.0, SVG Export Plug-In . SVG Version: 6.00 Build 0)  -->
<!DOCTYPE svg PUBLIC "-//W3C//DTD SVG 1.1//EN" "http://www.w3.org/Graphics/SVG/1.1/DTD/svg11.dtd">
<svg version="1.1" id="Layer_1" xmlns="http://www.w3.org/2000/svg" xmlns:xlink="http://www.w3.org/1999/xlink" x="0px" y="0px"
	 width="200px" height="200px" viewBox="0 0 200 200" enable-background="new 0 0 200 200" xml:space="preserve">
<path fill="#FFFFFF" d="M74.629,47.883c0,4.66,3.791,8.451,8.451,8.451c4.66,0,8.451-3.791,8.451-8.451s-3.791-8.451-8.451-8.451
	C78.42,39.433,74.629,43.224,74.629,47.883z M86.916,47.883c0,2.115-1.721,3.835-3.835,3.835c-2.115,0-3.836-1.721-3.836-3.835
	c0-2.115,1.721-3.836,3.836-3.836C85.195,44.047,86.916,45.768,86.916,47.883z"/>
<path fill="#FFFFFF" d="M110.818,47.883c0,4.66,3.792,8.451,8.451,8.451s8.451-3.791,8.451-8.451s-3.792-8.451-8.451-8.451
	S110.818,43.224,110.818,47.883z M119.27,51.719c-2.114,0-3.836-1.721-3.836-3.835c0-2.115,1.722-3.836,3.836-3.836
	c2.115,0,3.836,1.721,3.836,3.836C123.105,49.998,121.385,51.719,119.27,51.719z"/>
<rect x="110.26" y="114.814" transform="matrix(0.7232 0.6906 -0.6906 0.7232 112.89 -47.4426)" fill="#FFFFFF" width="10.75" height="4.615"/>
<rect x="110.143" y="129.749" transform="matrix(-0.708 -0.7063 0.7063 -0.708 104.2312 307.2143)" fill="#FFFFFF" width="10.982" height="4.616"/>
<polygon fill="#FFFFFF" points="112.07,140.417 108.865,143.737 116.288,150.904 117.891,149.244 119.493,147.584 "/>
<path fill="#FFFFFF" d="M166.523,141.058v-4.615h-16.115l-17.771-28.905c-0.056-0.546-0.111-1.07-0.167-1.557
	c-0.687-6.002-3.134-17.097-7.878-22.756l13.864-17.42h13.222v-4.615h-15.446l-15.234,19.142
	c-4.438-2.148-11.368-2.611-16.479-2.611c-2.059,0-3.565,0.076-4.033,0.102c-0.468-0.026-1.975-0.102-4.033-0.102
	c-5.111,0-12.04,0.463-16.479,2.611L64.739,61.189H49.293v4.615h13.221l13.865,17.42c-4.744,5.659-7.192,16.754-7.878,22.756
	c-0.056,0.486-0.112,1.011-0.167,1.558l-17.772,28.904H34.447v4.615h18.696l14.434-23.477c-0.5,9.364-0.639,21.566,0.399,33.619
	l-17.771,24.377v18.205h4.615v-16.701l13.905-19.075c2.326,14.249,12.092,15.834,16.296,15.834c1.033,0,1.956-0.083,2.714-0.188
	c2.121,3.525,7.851,4.841,12.75,4.841c4.899,0,10.629-1.315,12.751-4.841c0.758,0.105,1.681,0.188,2.713,0.188
	c4.205,0,13.971-1.586,16.296-15.834l13.906,19.075v16.701h4.614v-18.205L132.995,151.2c1.038-12.053,0.899-24.255,0.398-33.619
	l14.434,23.477H166.523z M127.885,155.887c-1.034,8.851-5.05,13.338-11.936,13.338c-1.468,0-2.646-0.224-3.195-0.35l-9.961-7.356
	V95.876h-4.615v65.643l-9.96,7.356c-0.554,0.126-1.73,0.35-3.197,0.35c-6.886,0-10.901-4.487-11.936-13.338
	c-2.252-19.27-1.059-40.107,0.001-49.382c1.164-10.185,5.038-20.007,8.634-21.896c2.794-1.466,8.026-2.273,14.732-2.273
	c2.283,0,3.867,0.101,3.883,0.102l0.15,0.009l0.149-0.009c0.016-0.001,1.599-0.102,3.883-0.102c6.706,0,11.938,0.808,14.731,2.273
	c3.597,1.889,7.471,11.711,8.635,21.896C128.943,115.78,130.137,136.619,127.885,155.887z M100.485,165.552l8.371,6.183
	c-1.245,1.153-4.342,2.143-8.371,2.143c-4.03,0-7.126-0.989-8.372-2.143L100.485,165.552z M89.223,171.001L89.223,171.001
	L89.223,171.001L89.223,171.001z M111.747,171.001L111.747,171.001L111.747,171.001L111.747,171.001z"/>
<path fill="#FFFFFF" d="M86.916,20.499v9.024c-0.484,0.709-0.941,1.437-1.368,2.181c-0.807-0.123-1.627-0.207-2.468-0.207
	c-9.035,0-16.386,7.351-16.386,16.385c0,7.965,5.715,14.614,13.259,16.079l6.565,13.105h27.935l6.452-12.88
	c8.27-0.823,14.75-7.82,14.75-16.303c0-9.035-7.35-16.385-16.386-16.385c-1.279,0-2.52,0.162-3.716,0.441
	c-0.459-0.815-0.951-1.612-1.479-2.386v-9.054h33.829l2.822-12.285l-4.497-1.034l-2,8.704h-34.77v8.417
	c-2.299-2.006-5.02-3.64-8.245-4.715l-0.729-0.243l-0.73,0.243c-3.215,1.072-5.929,2.699-8.225,4.697v-8.399h-34.77l-2-8.704
	l-4.498,1.034l2.824,12.285H86.916z M100.485,24.224c4.801,1.815,8.226,5.301,10.673,9.441c-4.935,2.828-8.273,8.136-8.273,14.218
	c0,7.873,5.582,14.462,12.995,16.029l-4.277,8.54H89.368l-4.175-8.334c8.038-1.042,14.272-7.917,14.272-16.234
	c0-6.506-3.822-12.123-9.33-14.766C92.559,29.221,95.891,25.96,100.485,24.224z M111.768,30.328L111.768,30.328L111.768,30.328
	L111.768,30.328z M131.04,47.883c0,6.49-5.279,11.771-11.771,11.771c-6.49,0-11.771-5.28-11.771-11.771
	c0-6.49,5.28-11.77,11.771-11.77C125.761,36.113,131.04,41.394,131.04,47.883z M94.85,47.883c0,6.49-5.28,11.771-11.77,11.771
	S71.31,54.374,71.31,47.883c0-6.49,5.28-11.77,11.771-11.77S94.85,41.394,94.85,47.883z M89.223,30.328L89.223,30.328L89.223,30.328
	L89.223,30.328z"/>
</svg>
