<?xml version="1.0" encoding="utf-8"?>
<!-- Generator: Adobe Illustrator 16.0.0, SVG Export Plug-In . SVG Version: 6.00 Build 0)  -->
<!DOCTYPE svg PUBLIC "-//W3C//DTD SVG 1.1//EN" "http://www.w3.org/Graphics/SVG/1.1/DTD/svg11.dtd">
<svg version="1.1" id="Layer_1" xmlns="http://www.w3.org/2000/svg" xmlns:xlink="http://www.w3.org/1999/xlink" x="0px" y="0px"
	 width="200px" height="200px" viewBox="0 0 200 200" enable-background="new 0 0 200 200" xml:space="preserve">
<polygon fill="#FFFFFF" points="84.636,51.16 84.636,53.447 115.619,53.447 115.619,51.16 115.619,48.873 84.636,48.873 "/>
<path fill="#FFFFFF" d="M72.865,118.219c5.318,0,9.646-4.327,9.646-9.646c0-5.319-4.328-9.647-9.646-9.647s-9.646,4.328-9.646,9.647
	C63.22,113.892,67.547,118.219,72.865,118.219z M72.865,103.502c2.797,0,5.071,2.273,5.071,5.071c0,2.795-2.274,5.07-5.071,5.07
	c-2.796,0-5.071-2.275-5.071-5.07C67.794,105.775,70.069,103.502,72.865,103.502z"/>
<path fill="#FFFFFF" d="M91.519,127.095c0-4.619-3.758-8.377-8.377-8.377s-8.377,3.758-8.377,8.377s3.758,8.377,8.377,8.377
	S91.519,131.714,91.519,127.095z M83.142,123.293c2.096,0,3.803,1.705,3.803,3.802s-1.707,3.803-3.803,3.803
	s-3.802-1.706-3.802-3.803S81.045,123.293,83.142,123.293z"/>
<path fill="#FFFFFF" d="M66.776,130.897c-5.69,0-10.32,4.63-10.32,10.319c0,5.69,4.63,10.321,10.32,10.321
	c5.69,0,10.32-4.631,10.32-10.321C77.096,135.527,72.466,130.897,66.776,130.897z M66.776,146.963c-3.168,0-5.745-2.577-5.745-5.746
	c0-3.168,2.577-5.745,5.745-5.745s5.745,2.577,5.745,5.745C72.521,144.386,69.944,146.963,66.776,146.963z"/>
<polygon fill="#FFFFFF" points="108.083,69.859 101.993,78.804 105.775,81.378 111.863,72.435 109.974,71.147 "/>
<polygon fill="#FFFFFF" points="121.64,69.795 115.092,78.739 118.782,81.442 125.331,72.499 123.484,71.147 "/>
<path fill="#FFFFFF" d="M135.03,117.449c-5.318,0-9.646,4.326-9.646,9.646c0,5.318,4.328,9.646,9.646,9.646s9.646-4.328,9.646-9.646
	C144.676,121.775,140.349,117.449,135.03,117.449z M135.03,132.166c-2.797,0-5.071-2.275-5.071-5.071c0-2.797,2.274-5.07,5.071-5.07
	c2.796,0,5.07,2.273,5.07,5.07C140.101,129.891,137.826,132.166,135.03,132.166z"/>
<path fill="#FFFFFF" d="M120.313,151.538c4.618,0,8.378-3.758,8.378-8.378c0-4.619-3.76-8.377-8.378-8.377
	c-4.619,0-8.377,3.758-8.377,8.377C111.937,147.78,115.694,151.538,120.313,151.538z M120.313,139.358
	c2.097,0,3.803,1.706,3.803,3.802c0,2.098-1.706,3.803-3.803,3.803s-3.802-1.705-3.802-3.803
	C116.512,141.064,118.217,139.358,120.313,139.358z"/>
<path fill="#FFFFFF" d="M121.838,159.93c-5.691,0-10.32,4.63-10.32,10.32s4.629,10.321,10.32,10.321
	c5.69,0,10.32-4.631,10.32-10.321S127.528,159.93,121.838,159.93z M121.838,175.996c-3.168,0-5.746-2.578-5.746-5.746
	c0-3.169,2.578-5.746,5.746-5.746c3.169,0,5.745,2.577,5.745,5.746C127.583,173.418,125.007,175.996,121.838,175.996z"/>
<path fill="#FFFFFF" d="M176.547,145.359l-8.944-28.542h-15.586c-0.38-4.296-1.016-8.515-1.937-12.432h11.979l10.846-23.53h5.196
	v-4.575h-8.125l-10.847,23.53h-10.306c-1.482-4.687-3.446-8.723-5.938-11.64c0.656-4.073,1.354-16.823-13.001-25.595
	c-0.111-1.604-0.38-4.397-0.987-7.522l31.379-28.132l-22.923-23.64l-2.777,13.269l4.433,7.49l-10.679-6.267l1.366,12.522
	l-5.491,0.149l-7.443,7.747c-5.812-1.838-12.525-2.075-15.557-2.075c-0.477,0-0.8,0.006-0.936,0.01
	c-0.135-0.003-0.458-0.01-0.935-0.01c-3.031,0-9.745,0.237-15.557,2.075l-7.443-7.747l-5.492-0.149l1.367-12.522L61.53,24.041
	l4.431-7.49L63.185,3.282l-22.923,23.64l31.379,28.132c-0.608,3.125-0.876,5.917-0.988,7.522c-14.354,8.771-13.656,21.521-13,25.595
	c-2.492,2.917-4.457,6.953-5.939,11.64H41.408l-10.847-23.53h-8.125v4.575h5.196l10.847,23.53h11.979
	c-0.921,3.917-1.557,8.136-1.938,12.432H32.935l-8.944,28.542h-4.979v4.574h8.341l8.944-28.541H48.21
	c-0.515,11.082,0.614,22.159,3.017,29.51l-11.858,2.948v31.853h-4.535v4.574h9.11v-32.85l8.923-2.219
	c6.305,15.073,21.265,40.074,31.286,40.646c7.199,0.409,13.206-5.278,16.116-8.695c2.81,3.299,8.474,8.717,15.368,8.718
	c0.001,0,0.001,0,0.002,0c0.247,0,0.496-0.008,0.745-0.022c10.022-0.572,24.982-25.573,31.286-40.646l8.924,2.219v32.85h9.109
	v-4.574h-4.534v-31.853l-11.858-2.948c2.402-7.351,3.531-18.428,3.016-29.51h11.915l8.944,28.541h8.341v-4.574H176.547z
	 M146.293,152.509L146.293,152.509L146.293,152.509L146.293,152.509z M144.559,150.654c-6.216,16.668-21.702,40.25-28.436,40.635
	c-0.163,0.009-0.324,0.014-0.485,0.014c-3.106,0-6.012-1.667-8.324-3.576V91.132h32.103
	C149.154,102.462,149.831,136.514,144.559,150.654z M54.244,152.51L54.244,152.51L54.244,152.51L54.244,152.51z M61.121,91.132
	h33.245v95.595c-2.562,2.386-6.116,4.772-9.952,4.562c-6.732-0.385-22.219-23.967-28.435-40.635
	C50.706,136.514,51.383,102.462,61.121,91.132z M50.656,119.105L50.656,119.105L50.656,119.105L50.656,119.105z M73.479,66.203
	h53.579c11.743,6.923,11.937,16.518,11.468,20.354H62.011C61.542,82.721,61.736,73.126,73.479,66.203z M60.472,12.652l0.648,3.098
	l-6.189,10.457l5.702,3.665l6.04-3.545l-0.917,8.409l8.579,0.232l4.949,5.15c-3.099,1.915-5.1,5.81-6.391,9.917L46.857,26.691
	L60.472,12.652z M99.333,40.692c0.535,0,0.846,0.009,0.864,0.009l0.072,0.001l0.07-0.001c0.019,0,0.329-0.009,0.865-0.009
	c2.67,0,11.816,0.229,17.409,3.172c3.911,2.059,5.993,11.158,6.607,17.764H75.315c0.615-6.606,2.698-15.705,6.608-17.763
	C87.517,40.921,96.663,40.692,99.333,40.692z M134.781,34.735l-0.916-8.409l6.04,3.545l5.701-3.665l-6.189-10.457l0.649-3.098
	l13.613,14.04l-26.037,23.344c-1.29-4.106-3.291-8.002-6.389-9.917l4.947-5.15L134.781,34.735z M105.026,188.588L105.026,188.588
	L105.026,188.588z M102.738,168.113H98.94v-9.044h3.798V168.113z M102.738,154.494H98.94v-9.046h3.798V154.494z M105.026,156.781
	L105.026,156.781L105.026,156.781z M105.026,143.16L105.026,143.16L105.026,143.16z M102.738,140.873H98.94V91.132h3.798V140.873z
	 M105.026,170.401L105.026,170.401L105.026,170.401z M98.94,172.688h3.798v10.241c-0.355-0.467-0.557-0.76-0.566-0.775l-1.899-2.844
	l-1.332,1.986V172.688z M149.88,119.105L149.88,119.105L149.88,119.105L149.88,119.105z"/>
</svg>
