<?xml version="1.0" encoding="utf-8"?>
<!-- Generator: Adobe Illustrator 16.0.0, SVG Export Plug-In . SVG Version: 6.00 Build 0)  -->
<!DOCTYPE svg PUBLIC "-//W3C//DTD SVG 1.1//EN" "http://www.w3.org/Graphics/SVG/1.1/DTD/svg11.dtd">
<svg version="1.1" id="Layer_1" xmlns="http://www.w3.org/2000/svg" xmlns:xlink="http://www.w3.org/1999/xlink" x="0px" y="0px"
	 width="200px" height="200px" viewBox="0 0 200 200" enable-background="new 0 0 200 200" xml:space="preserve">
<path fill="#FFFFFF" d="M116.497,42.21c0,5.972,4.859,10.832,10.832,10.832s10.832-4.86,10.832-10.832
	c0-5.973-4.859-10.833-10.832-10.833S116.497,36.238,116.497,42.21z M133.513,42.21c0,3.41-2.773,6.184-6.184,6.184
	s-6.184-2.774-6.184-6.184c0-3.41,2.773-6.184,6.184-6.184S133.513,38.8,133.513,42.21z"/>
<path fill="#FFFFFF" d="M83.946,42.21c0-5.973-4.859-10.833-10.832-10.833c-5.973,0-10.833,4.86-10.833,10.833
	c0,5.972,4.859,10.832,10.833,10.832C79.087,53.042,83.946,48.183,83.946,42.21z M73.114,48.394c-3.41,0-6.184-2.774-6.184-6.184
	c0-3.41,2.774-6.184,6.184-6.184c3.41,0,6.184,2.773,6.184,6.184C79.298,45.62,76.524,48.394,73.114,48.394z"/>
<path fill="#FFFFFF" d="M123.107,69.739c1.377,0.21,2.786,0.32,4.222,0.32c15.355,0,27.849-12.493,27.849-27.849
	c0-15.356-12.493-27.849-27.849-27.849c-4.567,0-8.878,1.112-12.686,3.07c-2.849-4.827-6.971-9.316-12.357-13.422l-1.409-1.075
	l-1.409,1.075c-5.586,4.258-9.819,8.926-12.675,13.958c-4.043-2.29-8.709-3.605-13.679-3.605c-15.356,0-27.849,12.493-27.849,27.849
	c0,15.355,12.493,27.849,27.849,27.849c1.583,0,3.132-0.14,4.644-0.394c-6.949,4.891-15.476,12.003-23.446,21.681
	C38.39,110.678,21.975,144.22,34.189,194.231l0.541,2.214l2.224-0.497c0.726-0.162,17.954-4.186,33.873-22.768
	c0.075-0.088,0.147-0.18,0.222-0.268c11.82,18.3,28.677,20.769,29.524,20.88l0.304,0.04l0.304-0.04
	c0.838-0.11,17.298-2.523,29.093-20.227c15.823,18.245,32.812,22.222,33.532,22.382l2.225,0.497l0.54-2.214
	c12.215-50.012-4.201-83.554-20.123-102.886C138.517,81.717,130.037,74.628,123.107,69.739z M163.584,186.175L112.37,68.385
	c7.04,4.1,19.421,12.478,30.489,25.917c5.528,6.713,10.075,13.821,13.647,21.305h-9.211v4.648h11.282
	c1.166,2.81,2.199,5.67,3.101,8.581h-5.294v4.648h6.604C167.129,149.612,167.336,167.214,163.584,186.175z M100.884,189.135
	c-2.251-0.409-16.74-3.639-26.743-20.075c7.625-10.089,13.4-22.249,17.193-36.226c5.367-19.773,6.762-43.27,4.147-69.839
	l-0.315-3.201l-0.756,0.335c2.774-3.292,4.797-7.233,5.812-11.56c0.991,4.226,2.94,8.088,5.615,11.333l-0.243-0.108l-0.314,3.201
	c-2.616,26.569-1.221,50.066,4.146,69.839c3.886,14.315,9.854,26.718,17.756,36.949
	C117.221,185.676,103.253,188.726,100.884,189.135z M37.772,133.484h6.603v-4.648h-5.291c0.9-2.911,1.934-5.771,3.101-8.581h11.278
	v-4.648h-9.211c3.545-7.429,8.052-14.486,13.524-21.156c11.075-13.496,23.535-21.933,30.608-26.058L37.176,186.175
	C33.425,167.216,33.631,149.613,37.772,133.484z M110.699,19.885c-5.174,3.864-8.957,9.484-10.478,15.967
	c-1.431-6.099-4.866-11.432-9.577-15.26c2.31-4.177,5.716-8.112,10.232-11.778C105.137,12.272,108.401,15.972,110.699,19.885z
	 M150.529,42.21c0,12.792-10.408,23.2-23.2,23.2c-12.793,0-23.2-10.408-23.2-23.2s10.407-23.2,23.2-23.2
	C140.121,19.01,150.529,29.418,150.529,42.21z M96.314,42.21c0,12.792-10.407,23.2-23.2,23.2s-23.2-10.408-23.2-23.2
	s10.408-23.2,23.2-23.2S96.314,29.418,96.314,42.21z M40.665,189.807L91.599,72.66c3.366,52.647-11.008,81.85-24.092,97.25
	C57.445,181.752,46.666,187.384,40.665,189.807z M109.16,72.659l50.935,117.148c-6-2.423-16.779-8.054-26.842-19.897
	C120.168,154.509,105.793,125.311,109.16,72.659z M36.067,131.16L36.067,131.16L36.067,131.16z M36.447,193.68L36.447,193.68
	L36.447,193.68z M164.312,193.68L164.312,193.68L164.312,193.68z M160.047,117.931L160.047,117.931L160.047,117.931z"/>
<polygon fill="#FFFFFF" points="106.316,151.144 106.316,146.495 94.443,146.495 94.443,148.819 94.443,151.144 "/>
<polygon fill="#FFFFFF" points="86.708,166.351 86.708,168.675 114.052,168.675 114.052,164.026 86.708,164.026 "/>
</svg>
