<?xml version="1.0" encoding="utf-8"?>
<!-- Generator: Adobe Illustrator 16.0.0, SVG Export Plug-In . SVG Version: 6.00 Build 0)  -->
<!DOCTYPE svg PUBLIC "-//W3C//DTD SVG 1.1//EN" "http://www.w3.org/Graphics/SVG/1.1/DTD/svg11.dtd">
<svg version="1.1" id="Layer_1" xmlns="http://www.w3.org/2000/svg" xmlns:xlink="http://www.w3.org/1999/xlink" x="0px" y="0px"
	 width="275px" height="235px" viewBox="0 0 275 235" enable-background="new 0 0 275 235" xml:space="preserve">
<path fill="#F95758" d="M159.263,169.564l0.376,0.678c1.164,2.102,28.754,51.559,49.82,61.305c2.014,0.933,4.157,1.405,6.369,1.406
	c0.001,0,0.001,0,0.003,0c13.862,0,30.091-18.031,49.606-55.118l0.655-1.243c6.123-11.566-2.955-28.294-21.693-40.674
	c7.369-7.965,27.289-32.24,27.134-61.765c-0.1-18.922-8.49-36.318-24.938-51.705l-1.857-1.737l-85.476,65.532V169.564z
	 M165.263,89.204l79.064-60.617c13.978,13.756,21.109,29.074,21.206,45.562c0.165,28.099-20.183,51.947-26.244,58.421
	l-40.575-28.113l-1.709,2.466l-1.709,2.466l39.646,27.47l-0.185,0.176l3.368,2.021c17.761,10.656,27.504,25.586,22.664,34.729
	l-0.662,1.256c-22.578,42.905-36.551,51.912-44.297,51.912c-0.001,0-0.002,0-0.002,0c-1.354-0.001-2.614-0.279-3.851-0.852
	c-18.065-8.357-43.339-52.141-46.716-58.1V89.204z M239.67,136.484L239.67,136.484L239.67,136.484z"/>
<path fill="#F95758" d="M238.451,78.838c8.88,0,16.104-7.225,16.104-16.104s-7.225-16.104-16.104-16.104
	s-16.104,7.224-16.104,16.104S229.571,78.838,238.451,78.838z M238.451,52.63c5.571,0,10.104,4.533,10.104,10.104
	c0,5.572-4.533,10.104-10.104,10.104s-10.104-4.533-10.104-10.104C228.347,57.163,232.88,52.63,238.451,52.63z"/>
<path fill="#F95758" d="M209.5,95.295c5.687,0,10.313-4.627,10.313-10.314c0-5.687-4.627-10.314-10.313-10.314
	c-5.688,0-10.314,4.627-10.314,10.314C199.186,90.668,203.812,95.295,209.5,95.295z M209.5,80.667c2.379,0,4.313,1.935,4.313,4.314
	s-1.935,4.314-4.313,4.314s-4.314-1.936-4.314-4.314S207.121,80.667,209.5,80.667z"/>
<rect x="188.641" y="146.17" transform="matrix(0.788 0.6156 -0.6156 0.788 138.0512 -102.6095)" fill="#F95758" width="58.784" height="6"/>
<polygon fill="#F95758" points="224.868,189.309 226.87,187.073 228.872,184.84 190.778,150.707 188.776,152.941 186.774,155.176 
	"/>
<polygon fill="#F95758" points="208.776,206.737 213.271,202.762 185.233,171.067 182.986,173.055 180.739,175.043 "/>
<path fill="#F95758" d="M10.886,176.592l0.651,1.236c19.518,37.093,35.746,55.125,49.612,55.125c2.212,0,4.355-0.474,6.37-1.406
	c21.065-9.746,48.656-59.203,49.82-61.305l0.376-0.678v-83.32L32.239,20.712l-1.857,1.737C13.935,37.835,5.544,55.231,5.444,74.153
	c-0.155,29.524,19.765,53.8,27.134,61.765C13.841,148.299,4.763,165.025,10.886,176.592z M111.716,89.205v78.797
	c-3.377,5.959-28.651,49.742-46.716,58.1c-1.236,0.572-2.496,0.852-3.851,0.852c-7.748,0-21.725-9.008-44.303-51.92l-0.658-1.248
	c-4.84-9.143,4.903-24.072,22.663-34.729l3.373-2.023l-0.186-0.178l39.644-27.466l-3.418-4.932l-40.579,28.115
	c-6.059-6.461-26.389-30.25-26.241-58.387c0.087-16.501,7.22-31.832,21.206-45.598L111.716,89.205z"/>
<path fill="#F95758" d="M67.479,95.295c5.688,0,10.314-4.627,10.314-10.314c0-5.687-4.627-10.314-10.314-10.314
	c-5.687,0-10.313,4.627-10.313,10.314C57.165,90.668,61.792,95.295,67.479,95.295z M67.479,80.667c2.379,0,4.314,1.935,4.314,4.314
	s-1.936,4.314-4.314,4.314s-4.313-1.936-4.313-4.314S65.1,80.667,67.479,80.667z"/>
<polygon fill="#F95758" points="33.938,164.9 37.631,169.629 83.953,133.439 82.106,131.075 80.26,128.711 "/>
<rect x="43.58" y="167.008" transform="matrix(-0.7448 0.6673 -0.6673 -0.7448 234.1085 250.4771)" fill="#F95758" width="51.149" height="6"/>
<polygon fill="#F95758" points="63.708,202.762 65.955,204.75 68.202,206.737 96.239,175.043 93.992,173.055 91.745,171.067 "/>
<path fill="#F95758" d="M84.077,11.561c28.253-1.284,39.8,23.392,42.654,30.912c-5.02,3.619-8.306,9.5-8.306,16.147
	c0,9.496,6.686,17.447,15.594,19.428c-8.908,1.98-15.594,9.933-15.594,19.428v67.198c0,10.98,8.934,19.914,19.914,19.914
	s19.914-8.934,19.914-19.914V97.476c0-9.496-6.686-17.448-15.594-19.428c8.908-1.98,15.593-9.932,15.593-19.428
	c0-6.454-3.1-12.183-7.873-15.825c2.683-7.025,14.4-32.504,42.758-31.234l0.271-5.994c-31.189-1.419-44.666,25.282-48.327,34.339
	c-2.109-0.763-4.373-1.2-6.742-1.2c-2.194,0-4.3,0.371-6.275,1.029c-3.756-9.215-17.245-35.551-48.259-34.168L84.077,11.561z
	 M146.874,43.717L146.874,43.717L146.874,43.717L146.874,43.717z M150.251,51.467h-3.377v6h5.32
	c0.032,0.381,0.059,0.764,0.059,1.153c0,7.672-6.241,13.914-13.913,13.914s-13.914-6.242-13.914-13.914
	c0-0.389,0.026-0.772,0.059-1.153h5.855v-6h-3.912c2.438-4.042,6.857-6.761,11.912-6.761S147.814,47.424,150.251,51.467z
	 M130.34,43.717L130.34,43.717L130.34,43.717L130.34,43.717z M130.34,43.717L130.34,43.717L130.34,43.717L130.34,43.717
	L130.34,43.717z M121.961,54.467L121.961,54.467L121.961,54.467z M155.254,118.199L155.254,118.199L155.254,118.199z
	 M155.254,136.484L155.254,136.484L155.254,136.484z M155.253,99.914L155.253,99.914L155.253,99.914z M142.302,96.914v3v3h9.952
	v12.285h-9.952v3v3h9.952v12.285h-9.952v3v3h9.952v25.189c0,7.672-6.242,13.914-13.914,13.914s-13.914-6.242-13.914-13.914v-15.742
	h9.952v-6h-9.952v-12.285h9.952v-6h-9.952v-12.285h9.952v-6h-9.952v-8.885c0-7.672,6.242-13.914,13.914-13.914
	c7.482,0,13.587,5.941,13.886,13.352H142.302z M121.426,109.361L121.426,109.361L121.426,109.361z M121.426,127.646L121.426,127.646
	L121.426,127.646z M121.426,145.932L121.426,145.932L121.426,145.932z M155.253,54.467L155.253,54.467L155.253,54.467z"/>
</svg>
